<?xml version="1.0" encoding="UTF-8"?>
<!-- Generator: Adobe Illustrator 27.2.0, SVG Export Plug-In . SVG Version: 6.00 Build 0)  -->
<svg version="1.1" id="Layer_1" xmlns="http://www.w3.org/2000/svg" xmlns:xlink="http://www.w3.org/1999/xlink" x="0px" y="0px" viewBox="0 0 195.5 50.2" style="enable-background:new 0 0 195.5 50.2;" xml:space="preserve">
<style type="text/css">
	.st0{fill:#FFFFFF;}
	.st1{fill:#FF6600;}
	.st2{fill:#00BAE9;}
	.st3{fill:#1C3359;}
	.st4{fill:url(#SVGID_1_);}
	.st5{fill:#0D2E5B;}
	.st6{fill:url(#SVGID_00000047782301159369978100000011993258963254847902_);}
	.st7{fill:url(#SVGID_00000086651363492674415970000008366598443669273472_);}
	.st8{fill:url(#SVGID_00000046337178746608260300000018380080753637866384_);}
</style>
<path id="Path_998_00000161597099488168824280000005885066228393265551_" class="st3" d="M67.8,49.8H60v-3.5  c-1.8,2.4-4.7,3.9-7.8,3.8c-5.9,0-9.9-4.1-9.9-10.9v-15h7.8v13.9c0,3.5,2,5.4,4.9,5.4c3,0,5-1.9,5-5.4V24.2h7.9L67.8,49.8z"/>
<path id="Path_999_00000124882102985510964230000015927358671589519025_" class="st3" d="M87.7,23.8C94,23.8,99,28.9,99,36.9  s-5,13.3-11.3,13.3c-3.1,0.2-6.1-1.3-7.9-4v3.6h-7.9v-34h7.9v12C81.6,25.2,84.6,23.7,87.7,23.8 M85.4,30.7c-2.9,0-5.6,2.2-5.6,6.3  s2.7,6.3,5.6,6.3c3,0,5.6-2.3,5.6-6.4S88.4,30.7,85.4,30.7"/>
<rect id="Rectangle_392_00000098185365763400772330000013975458282034246570_" x="101.8" y="24.2" class="st3" width="7.9" height="25.6"/>
<path id="Path_1000_00000098904336698612371050000018340861757198424725_" class="st3" d="M125.3,23.8c6.4,0,11,3.5,12.3,9.6h-8.4  c-0.5-1.8-2.2-3-4.1-2.9c-2.8,0-4.7,2.2-4.7,6.5s1.9,6.5,4.7,6.5c1.9,0.1,3.6-1.1,4.1-2.9h8.4c-1.3,5.9-5.9,9.6-12.3,9.6  c-7.5,0-12.9-5.1-12.9-13.2C112.4,28.9,117.7,23.8,125.3,23.8"/>
<path id="Path_1001_00000070100493193605866430000009039813445405161658_" class="st3" d="M153.9,50.2c-7.5,0-13.2-5.1-13.2-13.2  s5.8-13.2,13.3-13.2s13.3,5.1,13.3,13.2S161.4,50.2,153.9,50.2 M153.9,43.4c2.8,0,5.4-2.1,5.4-6.4c0-4.4-2.6-6.4-5.3-6.4  c-2.8,0-5.3,2-5.3,6.4C148.7,41.3,151.1,43.4,153.9,43.4"/>
<path id="Path_1002_00000018951777025700175320000002993593895489795981_" class="st3" d="M187.5,35.9c0-3.5-1.9-5.4-4.9-5.4  s-4.9,1.9-4.9,5.4v13.9h-7.8V24.2h7.9v3.4c1.8-2.4,4.7-3.8,7.8-3.7c5.9,0,9.9,4,9.9,10.9v15h-7.8L187.5,35.9z"/>
<g>
	<path class="st5" d="M114.6,11.4c0-5.3-4.3-9.5-9.5-9.5c-1.4,0-2.7,0.3-3.9,0.8c0,0,0,0,0.1,0c2.3,0,3.7,1.4,3.7,3.5   c0,1.6-1.1,2.9-3.6,5.4h2.7l-0.3,2.6c-3.1,0-6.4,0-6.4,0V12c0.7-0.7,2-2,3-3.1c0.9-1,1.7-1.8,1.7-2.5c0-0.5-0.3-1-1.1-1   c-0.8,0-1.1,0.6-1.2,1.2c0,0,0,0,0,0l-2.5-0.6c-1.1,1.5-1.7,3.4-1.7,5.5c0,5.3,4.3,9.5,9.5,9.5c1.8,0,3.5-0.5,4.9-1.4   c-0.5,0.2-1,0.3-1.6,0.3c-2.2,0-4-1.4-4.3-3.1l2.7-0.6c0.1,0.4,0.5,1.2,1.6,1.2c1,0,1.5-0.7,1.5-1.6c0-1.1-0.7-1.5-1.6-1.5   c-0.1,0-1.7,0-3.7,0l0.7-6.3h6.5v2.7h-4.4c0,0-0.1,0.9-0.2,1.4h1.8l0,0c2.3,0,3.6,1.6,3.6,3.7c0,0.8-0.2,1.5-0.6,2.1   C113.7,16.1,114.6,13.9,114.6,11.4z"/>
	<circle class="st2" cx="98.4" cy="19.6" r="3.1"/>
	<circle class="st2" cx="118.6" cy="8" r="2.1"/>
	<linearGradient id="SVGID_1_" gradientUnits="userSpaceOnUse" x1="111.1398" y1="0.304" x2="115.5522" y2="6.6469">
		<stop offset="0" style="stop-color:#F98F1C"/>
		<stop offset="0.3219" style="stop-color:#F97A1C"/>
		<stop offset="0.7239" style="stop-color:#F9671C"/>
		<stop offset="1" style="stop-color:#F9601C"/>
	</linearGradient>
	<circle class="st4" cx="113.1" cy="3.1" r="3.1"/>
	<circle class="st5" cx="91.6" cy="15.2" r="2.1"/>
</g>
<g>
	<path class="st0" d="M33.6,50.2H4.7c-2.5,0-4.6-2-4.6-4.6V17c0-2.5,2-4.6,4.6-4.6h25.4c2.5,0,4.6,2,4.6,4.6v32.2   C34.7,49.7,34.2,50.2,33.6,50.2z"/>
	<g>
		<path id="Path_1025_00000183969810533696130110000008376920443541863316_" class="st1" d="M18.3,19.3H9.1V30h9.2    c3.7,0,5.8-1.6,5.8-5.5C24.1,20.9,22.1,19.3,18.3,19.3"/>
		<path id="Path_1023_00000049908647610659471040000014621389928406079149_" class="st1" d="M34.2,12.2H3.8C1.7,12.2,0,13.9,0,16    l0,0v30.5c0,2,1.7,3.7,3.8,3.7H25c-0.7-2.4-0.7-5.6-1.1-8.4c-0.6-4-2.1-5.8-6.4-5.8H9.1v13.4H4.3c0,0-3.5,0-3.5-3.2    c0-7.2,0-27.7,0-30.1c0-1.7,1.4-3.2,3.1-3.2l0,0h17.4c6.8,0,11.2,4.6,11.2,10.4c0,4.5-1.8,7.9-6,9.6V33c4.1,1.1,5.3,5.1,5.6,8.9    c0.1,2.2,0.1,6,1.2,8.3h1c2.1,0,3.8-1.7,3.8-3.8l0,0V16C38,13.9,36.3,12.2,34.2,12.2"/>
	</g>
</g>
</svg>